<svg xmlns="http://www.w3.org/2000/svg" fill="none" viewBox="0 0 886 311">
  <path d="M0 0h114v311H0V0z" fill="#FE483D"/>
  <path d="M156.16 28.5h36.335v98.47c0 7.597 2.006 13.76 6.02 18.49 4.013 4.73 10.033 7.095 18.06 7.095 8.17 0 14.261-2.365 18.275-7.095 4.013-4.73 6.02-10.893 6.02-18.49V28.5h36.335v101.05c0 9.46-1.577 17.702-4.73 24.725-3.01 7.023-7.31 12.828-12.9 17.415-5.447 4.443-11.897 7.812-19.35 10.105-7.31 2.293-15.194 3.44-23.65 3.44-8.457 0-16.34-1.147-23.65-3.44-7.31-2.293-13.76-5.662-19.35-10.105-5.447-4.587-9.747-10.392-12.9-17.415-3.01-7.023-4.515-15.265-4.515-24.725V28.5zm153.977 114.595c5.016 4.157 9.531 7.453 13.545 9.89 4.156 2.293 7.811 3.942 10.965 4.945 3.153.86 5.876 1.29 8.17 1.29 3.296 0 5.733-.717 7.31-2.15 1.576-1.433 2.365-3.297 2.365-5.59 0-2.15-.645-3.942-1.935-5.375-1.29-1.577-3.512-3.082-6.665-4.515-3.01-1.433-7.167-2.938-12.47-4.515a105.008 105.008 0 01-13.545-6.02c-4.157-2.437-7.597-5.662-10.32-9.675-2.724-4.013-4.085-9.173-4.085-15.48 0-6.02 1.576-11.108 4.73-15.265 3.296-4.157 7.668-7.31 13.115-9.46 5.59-2.15 11.968-3.225 19.135-3.225 5.733 0 11.036.645 15.91 1.935 5.016 1.29 9.675 3.01 13.975 5.16a77.897 77.897 0 0112.47 7.525l-11.61 21.07c-4.157-3.87-8.887-7.023-14.19-9.46-5.304-2.58-10.177-3.87-14.62-3.87-3.01 0-5.304.573-6.88 1.72-1.434 1.147-2.15 2.652-2.15 4.515 0 2.15.86 3.942 2.58 5.375 1.863 1.433 4.443 2.795 7.74 4.085 3.44 1.147 7.596 2.652 12.47 4.515 5.16 1.863 9.89 4.013 14.19 6.45 4.443 2.437 7.955 5.518 10.535 9.245 2.723 3.727 4.085 8.672 4.085 14.835 0 10.607-3.297 18.633-9.89 24.08-6.45 5.303-15.552 7.955-27.305 7.955-7.167 0-13.832-.86-19.995-2.58-6.02-1.577-11.61-3.727-16.77-6.45-5.16-2.867-9.962-6.02-14.405-9.46l13.545-21.5zm142.986 38.055c-11.466 0-21.428-2.078-29.885-6.235-8.313-4.3-14.763-10.32-19.35-18.06-4.586-7.74-6.88-16.842-6.88-27.305 0-10.607 2.222-19.78 6.665-27.52 4.444-7.74 10.822-13.688 19.135-17.845 8.457-4.157 18.419-6.235 29.885-6.235 11.467 0 21.142 2.007 29.025 6.02 7.884 3.87 13.904 9.532 18.06 16.985 4.157 7.453 6.235 16.483 6.235 27.09v4.73c0 1.433-.143 2.652-.43 3.655h-90.3v-18.06h61.06l-7.74 9.89c.717-1.003 1.29-2.222 1.72-3.655.574-1.577.86-2.867.86-3.87 0-4.3-.788-8.027-2.365-11.18-1.576-3.153-3.798-5.59-6.665-7.31-2.866-1.72-6.235-2.58-10.105-2.58-4.873 0-8.958 1.075-12.255 3.225-3.296 2.15-5.805 5.447-7.525 9.89-1.576 4.3-2.436 9.747-2.58 16.34 0 6.02.86 11.18 2.58 15.48 1.72 4.3 4.3 7.597 7.74 9.89 3.44 2.15 7.669 3.225 12.685 3.225 5.734 0 10.607-1.075 14.62-3.225 4.157-2.15 7.454-5.375 9.89-9.675l29.025 7.095c-5.16 9.747-12.183 17.057-21.07 21.93-8.743 4.873-19.421 7.31-32.035 7.31zM526.06 11.3h32.68V179h-32.68V11.3zm108.26 169.85c-11.467 0-21.429-2.078-29.885-6.235-8.314-4.3-14.764-10.32-19.35-18.06-4.587-7.74-6.88-16.842-6.88-27.305 0-10.607 2.221-19.78 6.665-27.52 4.443-7.74 10.821-13.688 19.135-17.845 8.456-4.157 18.418-6.235 29.885-6.235 11.466 0 21.141 2.007 29.025 6.02 7.883 3.87 13.903 9.532 18.06 16.985 4.156 7.453 6.235 16.483 6.235 27.09v4.73c0 1.433-.144 2.652-.43 3.655h-90.3v-18.06h61.06l-7.74 9.89c.716-1.003 1.29-2.222 1.72-3.655.573-1.577.86-2.867.86-3.87 0-4.3-.789-8.027-2.365-11.18-1.577-3.153-3.799-5.59-6.665-7.31-2.867-1.72-6.235-2.58-10.105-2.58-4.874 0-8.959 1.075-12.255 3.225-3.297 2.15-5.805 5.447-7.525 9.89-1.577 4.3-2.437 9.747-2.58 16.34 0 6.02.86 11.18 2.58 15.48 1.72 4.3 4.3 7.597 7.74 9.89 3.44 2.15 7.668 3.225 12.685 3.225 5.733 0 10.606-1.075 14.62-3.225 4.156-2.15 7.453-5.375 9.89-9.675l29.025 7.095c-5.16 9.747-12.184 17.057-21.07 21.93-8.744 4.873-19.422 7.31-32.035 7.31zm78.312-38.055c5.016 4.157 9.531 7.453 13.545 9.89 4.156 2.293 7.811 3.942 10.965 4.945 3.153.86 5.876 1.29 8.17 1.29 3.296 0 5.733-.717 7.31-2.15 1.576-1.433 2.365-3.297 2.365-5.59 0-2.15-.645-3.942-1.935-5.375-1.29-1.577-3.512-3.082-6.665-4.515-3.01-1.433-7.167-2.938-12.47-4.515a105.008 105.008 0 01-13.545-6.02c-4.157-2.437-7.597-5.662-10.32-9.675-2.724-4.013-4.085-9.173-4.085-15.48 0-6.02 1.576-11.108 4.73-15.265 3.296-4.157 7.668-7.31 13.115-9.46 5.59-2.15 11.968-3.225 19.135-3.225 5.733 0 11.036.645 15.91 1.935 5.016 1.29 9.675 3.01 13.975 5.16a77.897 77.897 0 0112.47 7.525l-11.61 21.07c-4.157-3.87-8.887-7.023-14.19-9.46-5.304-2.58-10.177-3.87-14.62-3.87-3.01 0-5.304.573-6.88 1.72-1.434 1.147-2.15 2.652-2.15 4.515 0 2.15.86 3.942 2.58 5.375 1.863 1.433 4.443 2.795 7.74 4.085 3.44 1.147 7.596 2.652 12.47 4.515 5.16 1.863 9.89 4.013 14.19 6.45 4.443 2.437 7.955 5.518 10.535 9.245 2.723 3.727 4.085 8.672 4.085 14.835 0 10.607-3.297 18.633-9.89 24.08-6.45 5.303-15.552 7.955-27.305 7.955-7.167 0-13.832-.86-19.995-2.58-6.02-1.577-11.61-3.727-16.77-6.45-5.16-2.867-9.962-6.02-14.405-9.46l13.545-21.5zm98.052 0c5.016 4.157 9.531 7.453 13.545 9.89 4.156 2.293 7.811 3.942 10.965 4.945 3.153.86 5.876 1.29 8.17 1.29 3.296 0 5.733-.717 7.31-2.15 1.576-1.433 2.365-3.297 2.365-5.59 0-2.15-.645-3.942-1.935-5.375-1.29-1.577-3.512-3.082-6.665-4.515-3.01-1.433-7.167-2.938-12.47-4.515a105.008 105.008 0 01-13.545-6.02c-4.157-2.437-7.597-5.662-10.32-9.675-2.724-4.013-4.085-9.173-4.085-15.48 0-6.02 1.576-11.108 4.73-15.265 3.296-4.157 7.668-7.31 13.115-9.46 5.59-2.15 11.968-3.225 19.135-3.225 5.733 0 11.036.645 15.91 1.935 5.016 1.29 9.675 3.01 13.975 5.16a77.897 77.897 0 0112.47 7.525l-11.61 21.07c-4.157-3.87-8.887-7.023-14.19-9.46-5.304-2.58-10.177-3.87-14.62-3.87-3.01 0-5.304.573-6.88 1.72-1.434 1.147-2.15 2.652-2.15 4.515 0 2.15.86 3.942 2.58 5.375 1.863 1.433 4.443 2.795 7.74 4.085 3.44 1.147 7.596 2.652 12.47 4.515 5.16 1.863 9.89 4.013 14.19 6.45 4.443 2.437 7.955 5.518 10.535 9.245 2.723 3.727 4.085 8.672 4.085 14.835 0 10.607-3.297 18.633-9.89 24.08-6.45 5.303-15.552 7.955-27.305 7.955-7.167 0-13.832-.86-19.995-2.58-6.02-1.577-11.61-3.727-16.77-6.45-5.16-2.867-9.962-6.02-14.405-9.46l13.545-21.5zM366.72 258.375L361.47 303h-22.25l14.125-91.875 37.25 53.375 37.375-53.375L442.095 303h-22.25l-5.25-44.625-24 36.5-23.875-36.5zm116.203 45.875c-6.667 0-12.458-1.208-17.375-3.625-4.833-2.5-8.583-6-11.25-10.5s-4-9.792-4-15.875c0-6.167 1.292-11.5 3.875-16s6.292-7.958 11.125-10.375c4.917-2.417 10.708-3.625 17.375-3.625s12.292 1.167 16.875 3.5c4.583 2.25 8.083 5.542 10.5 9.875s3.625 9.583 3.625 15.75v2.75c0 .833-.083 1.542-.25 2.125h-52.5v-10.5h35.5l-4.5 5.75c.417-.583.75-1.292 1-2.125.333-.917.5-1.667.5-2.25 0-2.5-.458-4.667-1.375-6.5-.917-1.833-2.208-3.25-3.875-4.25-1.667-1-3.625-1.5-5.875-1.5-2.833 0-5.208.625-7.125 1.875-1.917 1.25-3.375 3.167-4.375 5.75-.917 2.5-1.417 5.667-1.5 9.5 0 3.5.5 6.5 1.5 9s2.5 4.417 4.5 5.75c2 1.25 4.458 1.875 7.375 1.875 3.333 0 6.167-.625 8.5-1.875 2.417-1.25 4.333-3.125 5.75-5.625l16.875 4.125c-3 5.667-7.083 9.917-12.25 12.75-5.083 2.833-11.292 4.25-18.625 4.25zm86.03-98.75h18.875V303h-18.875v-97.5zm-47 68.75c0-6.5 1.292-11.958 3.875-16.375 2.667-4.417 6.083-7.792 10.25-10.125s8.583-3.5 13.25-3.5c4.833 0 9.083 1.208 12.75 3.625 3.75 2.417 6.708 5.875 8.875 10.375 2.167 4.417 3.25 9.75 3.25 16 0 6.167-1.083 11.5-3.25 16s-5.125 7.958-8.875 10.375c-3.667 2.417-7.917 3.625-12.75 3.625-4.667 0-9.083-1.167-13.25-3.5s-7.583-5.708-10.25-10.125c-2.583-4.5-3.875-9.958-3.875-16.375zm19.875 0c0 3 .625 5.625 1.875 7.875 1.25 2.167 2.917 3.875 5 5.125 2.083 1.167 4.375 1.75 6.875 1.75 2.167 0 4.25-.583 6.25-1.75 2.083-1.167 3.792-2.833 5.125-5 1.333-2.25 2-4.917 2-8s-.667-5.708-2-7.875c-1.333-2.25-3.042-3.958-5.125-5.125-2-1.167-4.083-1.75-6.25-1.75-2.5 0-4.792.625-6.875 1.875-2.083 1.167-3.75 2.875-5 5.125-1.25 2.167-1.875 4.75-1.875 7.75zm59.524-50.375c0-3 1.083-5.417 3.25-7.25 2.166-1.917 4.75-2.875 7.75-2.875 3.083 0 5.666.958 7.75 2.875 2.166 1.833 3.25 4.25 3.25 7.25s-1.084 5.458-3.25 7.375c-2.084 1.917-4.667 2.875-7.75 2.875-3 0-5.584-.958-7.75-2.875-2.167-1.917-3.25-4.375-3.25-7.375zm1.875 21.625h18.25V303h-18.25v-57.5zm48.42 39.5c0 1.5.375 2.792 1.125 3.875.75 1 1.75 1.792 3 2.375 1.25.5 2.625.75 4.125.75 2.167 0 4.167-.458 6-1.375 1.834-.917 3.334-2.292 4.5-4.125 1.167-1.833 1.75-4.083 1.75-6.75l2 7.5c0 3.667-1 6.792-3 9.375-2 2.5-4.583 4.417-7.75 5.75-3.166 1.25-6.583 1.875-10.25 1.875-3.666 0-7.083-.667-10.25-2-3.083-1.417-5.583-3.5-7.5-6.25-1.833-2.75-2.75-6.083-2.75-10 0-5.5 1.959-9.833 5.875-13 3.917-3.25 9.459-4.875 16.625-4.875 3.5 0 6.625.333 9.375 1 2.834.667 5.25 1.5 7.25 2.5s3.5 2.042 4.5 3.125v8.375c-2-1.5-4.333-2.625-7-3.375-2.583-.833-5.333-1.25-8.25-1.25-2.25 0-4.041.25-5.375.75-1.333.5-2.333 1.25-3 2.25-.666.917-1 2.083-1 3.5zm-8.375-21.875l-6.375-12.625c3.25-1.583 7.167-3.083 11.75-4.5 4.584-1.417 9.584-2.125 15-2.125 5.084 0 9.625.75 13.625 2.25 4 1.417 7.167 3.5 9.5 6.25 2.334 2.75 3.5 6.125 3.5 10.125V303h-18.125v-36.25c0-1.417-.25-2.625-.75-3.625a6.525 6.525 0 00-2-2.75c-.916-.75-2.083-1.292-3.5-1.625-1.333-.333-2.875-.5-4.625-.5-2.583 0-5.125.292-7.625.875-2.416.583-4.541 1.292-6.375 2.125-1.833.75-3.166 1.375-4 1.875z" fill="#303030"/>
</svg>
